<svg xmlns="http://www.w3.org/2000/svg" width="1024" height="1024" viewBox="0 0 1024 1024">
    <defs>
        <filter id="shadow" x="85" y="95" width="854" height="854" filterUnits="userSpaceOnUse">
            <feOffset dy="10" input="SourceAlpha"/>
            <feGaussianBlur stdDeviation="5" result="blur"/>
            <feFlood flood-opacity="0.302"/>
            <feComposite operator="in" in2="blur"/>
            <feComposite in="SourceGraphic"/>
        </filter>

        <clipPath id="shape">
            <path id="Mask-dasdosa" data-name="Mask" d="M824,256.627c0-9.782,0-19.565-.056-29.348-.049-8.241-.144-16.48-.368-24.717-.484-17.953-1.543-36.06-4.736-53.813a181.473,181.473,0,0,0-16.859-51.133,172.071,172.071,0,0,0-75.235-75.2A181.693,181.693,0,0,0,675.558,5.56C657.8,2.372,639.691,1.315,621.738.83,613.5.607,605.253.513,597.008.462,587.22.4,577.432.407,567.644.407L454,0H369L257.361.407c-9.807,0-19.614,0-29.421.055-8.262.051-16.52.145-24.779.368-17.995.485-36.148,1.543-53.945,4.735A182.265,182.265,0,0,0,97.958,22.414a172.228,172.228,0,0,0-75.385,75.2,181.241,181.241,0,0,0-16.9,51.161c-3.2,17.746-4.255,35.847-4.742,53.792C.709,210.8.613,219.039.563,227.279.5,237.063,0,249.216,0,259l0,110.09L0,455,.508,567.427c0,9.8,0,19.592.055,29.388.05,8.252.146,16.5.369,24.751.486,17.976,1.547,36.109,4.746,53.886a181.663,181.663,0,0,0,16.891,51.2,172.354,172.354,0,0,0,75.381,75.3,182.119,182.119,0,0,0,51.288,16.88c17.789,3.193,35.936,4.252,53.924,4.737,8.259.223,16.518.318,24.78.368,9.807.06,19.613.056,29.42.056l112.645,0h85.21l112.427,0c9.788,0,19.576.005,29.364-.055,8.245-.05,16.488-.145,24.731-.368,17.96-.486,36.078-1.546,53.841-4.741a181.506,181.506,0,0,0,51.16-16.873,172.193,172.193,0,0,0,75.239-75.3,181.938,181.938,0,0,0,16.866-51.23c3.19-17.77,4.248-35.9,4.733-53.865.223-8.25.318-16.5.367-24.751.061-9.8.056-19.592.056-29.388,0,0-.006-110.444-.006-112.429V369c0-1.466.006-112.372.006-112.372"/>
        </clipPath>
    </defs>

    <g transform="translate(100, 100)">
        <g transform="matrix(1, 0, 0, 1, -100, -100)" filter="url(#shadow)">
            <g clip-path="url(#shape)" transform="translate(100, 100)">
                <rect x="0" y="0" width="1000" height="1000" fill="#1e1e1e"/>
                <circle cx="190" cy="190" r="60" fill="#ee6b5f"/>
                <circle cx="360" cy="190" r="60" fill="#f7bf50"/>
                <circle cx="530" cy="190" r="60" fill="#60c856"/>
            </g>
        </g>
    </g>
</svg>
